<svg width="24" height="24" viewBox="0 0 24 24" fill="none" xmlns="http://www.w3.org/2000/svg">
<path d="M13.0608 19.0292C12.8272 19.0297 12.6008 18.9483 12.4208 18.7992C12.3196 18.7153 12.2359 18.6122 12.1745 18.4958C12.1132 18.3795 12.0754 18.2522 12.0633 18.1212C12.0512 17.9902 12.0651 17.8582 12.1042 17.7326C12.1432 17.607 12.2066 17.4903 12.2908 17.3892L16.7708 12.0292L12.4508 6.65924C12.3678 6.55695 12.3057 6.43925 12.2683 6.31291C12.2309 6.18657 12.2188 6.05408 12.2327 5.92305C12.2467 5.79203 12.2864 5.66504 12.3495 5.54941C12.4127 5.43377 12.4981 5.33176 12.6008 5.24924C12.7043 5.1582 12.8255 5.08953 12.9567 5.04754C13.088 5.00556 13.2265 4.99115 13.3636 5.00524C13.5007 5.01932 13.6334 5.06159 13.7534 5.12939C13.8734 5.19719 13.978 5.28906 14.0608 5.39924L18.8908 11.3992C19.0379 11.5782 19.1183 11.8026 19.1183 12.0342C19.1183 12.2659 19.0379 12.4903 18.8908 12.6692L13.8908 18.6692C13.7905 18.7903 13.6631 18.8859 13.5189 18.9485C13.3747 19.011 13.2177 19.0387 13.0608 19.0292Z" fill="#296483"/>
<path d="M5.00176 19.0292C4.76811 19.0297 4.54167 18.9483 4.36176 18.7992C4.2605 18.7153 4.1768 18.6122 4.11545 18.4958C4.0541 18.3795 4.0163 18.2522 4.00422 18.1212C3.99215 17.9902 4.00603 17.8582 4.04507 17.7326C4.08412 17.607 4.14756 17.4903 4.23176 17.3892L8.71176 12.0292L4.39176 6.65924C4.30869 6.55695 4.24666 6.43925 4.20923 6.31291C4.1718 6.18657 4.15971 6.05408 4.17364 5.92305C4.18758 5.79203 4.22728 5.66504 4.29045 5.54941C4.35363 5.43377 4.43903 5.33176 4.54176 5.24924C4.64523 5.1582 4.76639 5.08953 4.89765 5.04754C5.02892 5.00556 5.16744 4.99115 5.30453 5.00524C5.44163 5.01932 5.57433 5.06159 5.69431 5.12939C5.81429 5.19719 5.91897 5.28906 6.00176 5.39924L10.8318 11.3992C10.9788 11.5782 11.0592 11.8026 11.0592 12.0342C11.0592 12.2659 10.9788 12.4903 10.8318 12.6692L5.83176 18.6692C5.73144 18.7903 5.60401 18.8859 5.4598 18.9485C5.31559 19.011 5.15867 19.0387 5.00176 19.0292Z" fill="#296483"/>
</svg>
