<svg width="24" height="25" viewBox="0 0 24 25" fill="none" xmlns="http://www.w3.org/2000/svg">
<path d="M15.8532 16.6946L15.8402 16.7126L15.8627 16.6944C16.3442 16.304 16.9589 16.0703 17.625 16.0703C19.1722 16.0703 20.4297 17.3278 20.4297 18.875C20.4297 20.4222 19.1722 21.6797 17.625 21.6797C16.0778 21.6797 14.8203 20.4222 14.8203 18.875C14.8203 18.6062 14.8577 18.3444 14.9302 18.0967L14.945 18.1011L14.9272 18.0882L10.3147 14.7484L10.543 14.4331L10.3039 14.75C9.62095 15.6551 8.53572 16.2422 7.3125 16.2422C5.24494 16.2422 3.57031 14.5676 3.57031 12.5C3.57031 10.4324 5.24494 8.75781 7.3125 8.75781C8.53572 8.75781 9.62095 9.34485 10.3039 10.25L9.99325 10.4844L10.3147 10.2516L14.9272 6.9118L14.9363 6.92433L14.9302 6.90328C14.8577 6.65556 14.8203 6.39615 14.8203 6.125C14.8203 4.57775 16.0778 3.32031 17.625 3.32031C19.1722 3.32031 20.4297 4.57775 20.4297 6.125C20.4297 7.67225 19.1722 8.92969 17.625 8.92969C16.9589 8.92969 16.3442 8.69597 15.8627 8.30565L15.8767 8.2884L15.8532 8.30539L10.997 11.8187L10.9909 11.8103L10.9939 11.8264C11.075 12.2718 11.075 12.7282 10.9939 13.1736L10.9837 13.1718L10.997 13.1813L15.8532 16.6946ZM18.8516 6.125C18.8516 5.44803 18.302 4.89844 17.625 4.89844C16.948 4.89844 16.3984 5.44803 16.3984 6.125C16.3984 6.80197 16.948 7.35156 17.625 7.35156C18.302 7.35156 18.8516 6.80197 18.8516 6.125ZM5.24219 12.5C5.24219 13.641 6.17147 14.5703 7.3125 14.5703C8.45353 14.5703 9.38281 13.641 9.38281 12.5C9.38281 11.359 8.45353 10.4297 7.3125 10.4297C6.17147 10.4297 5.24219 11.359 5.24219 12.5ZM16.3984 18.875C16.3984 19.552 16.948 20.1016 17.625 20.1016C18.302 20.1016 18.8516 19.552 18.8516 18.875C18.8516 18.198 18.302 17.6484 17.625 17.6484C16.948 17.6484 16.3984 18.198 16.3984 18.875Z" fill="#296483" stroke="#296483" stroke-width="0.015625"/>
</svg>
